<?xml version="1.0" encoding="UTF-8"?>
<svg version="1.1" xmlns="http://www.w3.org/2000/svg" width="1280" height="1280">
<path d="M0 0 C1.34194944 0.00028305 2.68389904 0.00012185 4.02584839 -0.0004425 C7.61996007 -0.00072589 11.21403743 0.0050956 14.80814123 0.01213145 C18.58238895 0.0184424 22.35663771 0.01897485 26.13088989 0.02015686 C33.25612375 0.02324759 40.381342 0.0314301 47.50656903 0.04150635 C55.62765599 0.05273818 63.74874375 0.05819564 71.86983657 0.06320179 C88.55532331 0.07361495 105.24079442 0.09117002 121.92626953 0.11352539 C123.10725135 4.3275897 123.04756643 8.40426004 123.01528931 12.75004578 C123.01150396 14.07105961 123.01150396 14.07105961 123.00764215 15.4187606 C122.99790548 18.37524261 122.98087314 21.33163746 122.96386719 24.28808594 C122.95536174 26.40525143 122.94729016 28.52241871 122.93962097 30.6395874 C122.91740994 36.39339477 122.88874282 42.14715346 122.85866594 47.90092444 C122.82804252 53.91292454 122.80239695 59.92494621 122.77597046 65.93696594 C122.73077025 76.03075116 122.68128608 86.12450884 122.62939453 96.21826172 C122.56937639 107.90510089 122.51661757 119.59195625 122.46762621 131.27884644 C122.42543594 141.29926052 122.37938356 151.31965135 122.33006132 161.34003288 C122.30057412 167.33099285 122.27244023 173.32195108 122.24776077 179.31293297 C122.22435711 184.9410782 122.19612189 190.56917845 122.16407204 196.19728088 C122.15307688 198.26899186 122.14379725 200.34071272 122.13630867 202.41243935 C122.12585957 205.22765885 122.10935364 208.04277705 122.09121704 210.85795593 C122.08955681 211.6888685 122.08789659 212.51978106 122.08618605 213.37587279 C122.04042033 218.99937459 122.04042033 218.99937459 120.92626953 220.11352539 C119.46335326 220.21133258 117.99573833 220.23984285 116.52955627 220.24050903 C115.58027252 220.24332886 114.63098877 220.24614868 113.65293884 220.24905396 C112.60304276 220.24702972 111.55314667 220.24500549 110.47143555 220.24291992 C109.37234863 220.24467224 108.27326172 220.24642456 107.14086914 220.24822998 C103.48728889 220.25265145 99.83375657 220.24970926 96.18017578 220.24633789 C93.65290823 220.24701089 91.12564074 220.24798089 88.59837341 220.24923706 C83.29287034 220.25071447 77.98738463 220.2486529 72.68188477 220.24389648 C66.54311399 220.23845667 60.40437643 220.2402145 54.26560646 220.24572289 C48.36828557 220.25080341 42.47097503 220.25027095 36.57365227 220.24734116 C34.06053602 220.2466721 31.54741893 220.24749957 29.03430367 220.24982071 C25.52634534 220.25234904 22.01845154 220.24850389 18.51049805 220.24291992 C16.93869026 220.24595627 16.93869026 220.24595627 15.33512878 220.24905396 C14.38302521 220.24623413 13.43092163 220.24341431 12.44996643 220.24050903 C11.20472875 220.23994349 11.20472875 220.23994349 9.93433475 220.23936653 C7.92626953 220.11352539 7.92626953 220.11352539 5.92626953 219.11352539 C3.55666592 208.96511303 4.80069838 197.28034896 4.82861328 186.91430664 C4.83048131 184.86736587 4.83190339 182.82042465 4.832901 180.77348328 C4.83669591 175.4191461 4.84649995 170.06483659 4.85760498 164.71051025 C4.86788457 159.23352431 4.87241258 153.75653385 4.87744141 148.27954102 C4.88812528 137.55752373 4.90516483 126.83552687 4.92626953 116.11352539 C2.57677944 116.25369198 0.22771132 116.39841699 -2.12133789 116.5456543 C-3.42955002 116.62586823 -4.73776215 116.70608215 -6.08561707 116.78872681 C-12.25599778 117.23306786 -18.31055469 118.35879265 -24.38623047 119.48852539 C-26.16223633 119.80176758 -26.16223633 119.80176758 -27.97412109 120.12133789 C-70.63957277 127.87439504 -109.6094759 154.07063139 -134.76123047 189.11352539 C-135.87943029 190.77080961 -136.98300629 192.43803067 -138.07373047 194.11352539 C-139.04246094 195.58885742 -139.04246094 195.58885742 -140.03076172 197.09399414 C-145.15070353 205.13122594 -149.35072776 213.36225296 -153.07373047 222.11352539 C-153.33927734 222.73565918 -153.60482422 223.35779297 -153.87841797 223.9987793 C-160.66338541 240.20124796 -164.35009612 256.8697441 -165.44189453 274.38720703 C-165.49958008 275.29462646 -165.55726563 276.2020459 -165.61669922 277.13696289 C-165.65819092 277.93021973 -165.69968262 278.72347656 -165.74243164 279.54077148 C-166.16813878 282.84666817 -167.13691388 285.91916169 -168.07373047 289.11352539 C-182.92020996 289.13685525 -197.76668704 289.15450499 -212.61318111 289.16533756 C-219.50620574 289.17050034 -226.399219 289.17754268 -233.29223633 289.18896484 C-239.93819212 289.19997239 -246.58413916 289.20580161 -253.23010445 289.20840263 C-255.77195993 289.2102574 -258.31381473 289.21387899 -260.85566521 289.21925545 C-264.40224508 289.22646206 -267.94877537 289.22751649 -271.49536133 289.22705078 C-272.55775024 289.23064606 -273.62013916 289.23424133 -274.71472168 289.23794556 C-275.67530991 289.23657089 -276.63589813 289.23519623 -277.62559509 289.23377991 C-278.88522521 289.2351626 -278.88522521 289.2351626 -280.17030239 289.23657322 C-282.07373047 289.11352539 -282.07373047 289.11352539 -283.07373047 288.11352539 C-284.28005619 272.00907701 -282.87492577 255.96053014 -280.07373047 240.11352539 C-279.8482251 238.75155029 -279.8482251 238.75155029 -279.61816406 237.36206055 C-275.43963134 212.55554803 -267.19997588 187.79272459 -256.11035156 165.22338867 C-255.09335202 163.15346167 -254.10681074 161.07119552 -253.12451172 158.98461914 C-241.96481845 135.61414192 -226.92072437 114.6918953 -209.41748047 95.67602539 C-207.3875938 93.45668263 -205.40877549 91.20680505 -203.44873047 88.92602539 C-199.866571 84.81632699 -196.20259686 80.68238461 -192.07373047 77.11352539 C-191.41373047 77.11352539 -190.75373047 77.11352539 -190.07373047 77.11352539 C-190.07373047 76.45352539 -190.07373047 75.79352539 -190.07373047 75.11352539 C-188.52484545 73.69646037 -186.90611513 72.35543043 -185.26123047 71.05102539 C-180.8737881 67.55995841 -180.8737881 67.55995841 -176.56201172 63.97680664 C-158.66737451 48.77900644 -138.43638119 36.7678431 -117.13867188 27.05786133 C-115.43764212 26.27994893 -113.74474535 25.48427759 -112.05419922 24.68383789 C-96.54064651 17.39175321 -80.6627919 12.32919403 -64.07373047 8.11352539 C-62.83751953 7.79383789 -61.60130859 7.47415039 -60.32763672 7.14477539 C-57.58116868 6.44503831 -54.83038045 5.77176393 -52.07373047 5.11352539 C-51.35185547 4.93176758 -50.62998047 4.75000977 -49.88623047 4.56274414 C-33.61949996 0.6455719 -16.65947338 -0.04903966 0 0 Z " fill="#000" transform="translate(575.07373046875,437.886474609375)"/>
<path d="M0 0 C1.27069163 0.00138269 1.27069163 0.00138269 2.56705379 0.00279331 C3.53605618 0.00141865 4.50505856 0.00004398 5.50342464 -0.00137234 C6.5751643 0.00222294 7.64690395 0.00581821 8.75112057 0.00952244 C10.43383053 0.0093034 10.43383053 0.0093034 12.15053463 0.00907993 C15.87866266 0.00977963 19.60674144 0.01757468 23.3348608 0.02539158 C25.91175973 0.02725556 28.48865902 0.02867955 31.06555843 0.0296793 C37.16770571 0.03311441 43.26983249 0.04100523 49.37197202 0.05102879 C56.31744705 0.06219094 63.26292291 0.06770063 70.20840466 0.07272422 C84.49926422 0.08318787 98.79010875 0.10078668 113.08095455 0.12304783 C119.17802776 12.31719425 112.20154219 37.87922914 110.08095455 51.12304783 C109.97025631 51.82429783 109.85955807 52.52554783 109.74550533 53.24804783 C107.90659958 64.49115729 104.53258156 75.29235376 101.08095455 86.12304783 C100.64662106 87.4917905 100.64662106 87.4917905 100.20351315 88.88818455 C97.00496747 98.90399178 93.71834431 108.67039583 89.08095455 118.12304783 C88.42565682 119.54877715 87.77362228 120.97600848 87.1239233 122.40429783 C69.14309105 161.6568091 40.74693328 200.03823964 6.08095455 226.12304783 C4.87339195 227.05856028 3.66640394 227.99481468 2.4598608 228.93164158 C-18.30538429 244.92075156 -40.69662543 258.09072769 -64.91904545 268.12304783 C-65.64269291 268.42694431 -66.36634037 268.7308408 -67.11191654 269.04394627 C-83.20519606 275.75634462 -99.88418404 280.46634983 -116.91904545 284.12304783 C-117.83761625 284.34265612 -117.83761625 284.34265612 -118.77474403 284.56670094 C-139.71336933 289.48579134 -161.20568504 289.56310031 -182.59050012 289.46016121 C-186.41358358 289.44481154 -190.23666815 289.44629253 -194.05977726 289.44549656 C-200.44415074 289.44184552 -206.82841397 289.42706921 -213.21274662 289.40429783 C-221.41317189 289.37510878 -229.61351042 289.36503892 -237.81398201 289.36061573 C-244.89631898 289.35664883 -251.97863707 289.34417356 -259.06096053 289.33026886 C-261.32923289 289.32617277 -263.5975046 289.32324652 -265.86577892 289.32047367 C-270.06333807 289.31469716 -274.26081895 289.30003933 -278.45835209 289.28418064 C-279.7136623 289.28306278 -280.96897251 289.28194492 -282.26232243 289.28079319 C-283.39569035 289.27508305 -284.52905827 289.2693729 -285.69677067 289.26348972 C-286.68711339 289.26051506 -287.67745611 289.2575404 -288.69780922 289.25447559 C-290.91904545 289.12304783 -290.91904545 289.12304783 -291.91904545 288.12304783 C-292.03112232 286.66064838 -292.07472629 285.19293523 -292.09072208 283.72633457 C-292.10974079 282.30240894 -292.10974079 282.30240894 -292.12914371 280.84971714 C-292.13804127 279.79982105 -292.14693882 278.74992496 -292.156106 277.66821384 C-292.17577427 276.01958347 -292.17577427 276.01958347 -292.19583988 274.33764744 C-292.23781143 270.6841192 -292.27221078 267.03056873 -292.3057642 263.37695408 C-292.33140101 260.84968514 -292.35718507 258.3224177 -292.383111 255.79515171 C-292.43616855 250.48968204 -292.48512493 245.18419293 -292.53159428 239.87866306 C-292.58549629 233.73978495 -292.65059252 227.60109456 -292.72093266 221.46238476 C-292.78796065 215.56514232 -292.84387761 209.66782872 -292.89555645 203.77043056 C-292.91903605 201.25728144 -292.9458111 198.74416095 -292.9758749 196.23108196 C-293.01683169 192.72315486 -293.04513606 189.21534812 -293.0701685 185.70727634 C-293.08513874 184.65940449 -293.10010899 183.61153263 -293.11553288 182.53190708 C-293.11975254 181.5798035 -293.12397221 180.62769993 -293.12831974 179.64674473 C-293.13623885 178.81658628 -293.14415796 177.98642782 -293.15231705 177.13111305 C-292.91904545 175.12304783 -292.91904545 175.12304783 -290.91904545 173.12304783 C-288.63443756 172.87530136 -288.63443756 172.87530136 -285.72164249 172.87822056 C-284.61911137 172.87428288 -283.51658024 172.87034519 -282.38063908 172.86628819 C-281.16475605 172.87198322 -279.94887302 172.87767826 -278.69614506 172.88354588 C-276.73560928 172.88045328 -274.77507351 172.87735438 -272.81453812 172.87402308 C-270.69976318 172.87219498 -268.58503865 172.87514462 -266.4702673 172.8792181 C-262.03992914 172.88684195 -257.60975204 172.87614912 -253.17943668 172.86201572 C-240.57741678 172.8243392 -227.97546486 172.80595347 -215.37339115 172.81762791 C-208.41860914 172.82391203 -201.46408516 172.81191036 -194.5093661 172.78118259 C-190.84028228 172.7657945 -187.17170587 172.75921201 -183.50261593 172.77576351 C-140.62363356 172.95651317 -93.85674967 161.56955351 -62.19297123 130.42529392 C-61.66042728 129.8756699 -61.12788334 129.32604588 -60.5792017 128.75976658 C-57.91904545 126.12304783 -57.91904545 126.12304783 -55.91904545 126.12304783 C-55.58904545 125.13304783 -55.25904545 124.14304783 -54.91904545 123.12304783 C-54.25904545 123.12304783 -53.59904545 123.12304783 -52.91904545 123.12304783 C-52.6555933 122.52951511 -52.39214115 121.9359824 -52.1207056 121.32446384 C-50.86869297 119.03080315 -49.60043475 117.66812432 -47.69248295 115.90039158 C-43.82556852 112.13850199 -40.67190045 108.07067789 -37.54404545 103.68554783 C-36.98459232 102.90566502 -36.4251392 102.1257822 -35.84873295 101.32226658 C-30.60644321 93.89168158 -26.15184402 86.16090953 -21.91904545 78.12304783 C-21.44080326 77.26968845 -20.96256107 76.41632908 -20.4698267 75.53711033 C-16.49773632 68.19438174 -14.09192254 60.2416437 -11.60361576 52.30371189 C-11.00051211 50.38255574 -10.37915734 48.46714941 -9.75498295 46.55273533 C-5.4650927 32.70064697 -3.78169425 18.24509626 -3.12998295 3.79882908 C-2.84489318 0.18241253 -2.84489318 0.18241253 0 0 Z " fill="#000" transform="translate(872.9190454483032,552.8769521713257)"/>
</svg>
